<mxfile host="app.diagrams.net" modified="2024-03-12T15:08:19.824Z" agent="Mozilla/5.0 (Windows NT 10.0; Win64; x64) AppleWebKit/537.36 (KHTML, like Gecko) Chrome/122.0.0.0 Safari/537.36" etag="rYCi-SZ0Xacpg8s3nEq6" version="23.1.5" type="device">
  <diagram name="Page-1" id="6frWCQ5wU5y1jhWqq2I7">
    <mxGraphModel dx="1050" dy="566" grid="1" gridSize="10" guides="1" tooltips="1" connect="1" arrows="1" fold="1" page="1" pageScale="1" pageWidth="850" pageHeight="1100" math="0" shadow="0">
      <root>
        <mxCell id="0" />
        <mxCell id="1" parent="0" />
        <mxCell id="GKGKZh8dJ2q86yQ59igy-12" style="edgeStyle=orthogonalEdgeStyle;rounded=0;orthogonalLoop=1;jettySize=auto;html=1;exitX=0.5;exitY=1;exitDx=0;exitDy=0;exitPerimeter=0;entryX=0.5;entryY=0;entryDx=0;entryDy=0;startArrow=classic;startFill=1;" edge="1" parent="1" source="GKGKZh8dJ2q86yQ59igy-1" target="GKGKZh8dJ2q86yQ59igy-3">
          <mxGeometry relative="1" as="geometry" />
        </mxCell>
        <mxCell id="GKGKZh8dJ2q86yQ59igy-1" value="Database" style="strokeWidth=2;html=1;shape=mxgraph.flowchart.database;whiteSpace=wrap;" vertex="1" parent="1">
          <mxGeometry x="310" y="60" width="210" height="170" as="geometry" />
        </mxCell>
        <mxCell id="GKGKZh8dJ2q86yQ59igy-2" value="PostgreSQL" style="text;html=1;align=center;verticalAlign=middle;whiteSpace=wrap;rounded=0;fontStyle=1" vertex="1" parent="1">
          <mxGeometry x="377.5" y="150" width="75" height="30" as="geometry" />
        </mxCell>
        <mxCell id="GKGKZh8dJ2q86yQ59igy-13" style="edgeStyle=orthogonalEdgeStyle;rounded=0;orthogonalLoop=1;jettySize=auto;html=1;exitX=0.5;exitY=1;exitDx=0;exitDy=0;entryX=0.5;entryY=0;entryDx=0;entryDy=0;startArrow=classic;startFill=1;" edge="1" parent="1" source="GKGKZh8dJ2q86yQ59igy-3" target="GKGKZh8dJ2q86yQ59igy-9">
          <mxGeometry relative="1" as="geometry" />
        </mxCell>
        <mxCell id="GKGKZh8dJ2q86yQ59igy-3" value="" style="rounded=0;whiteSpace=wrap;html=1;" vertex="1" parent="1">
          <mxGeometry x="310" y="280" width="210" height="110" as="geometry" />
        </mxCell>
        <mxCell id="GKGKZh8dJ2q86yQ59igy-4" value="HTTP Server" style="text;html=1;align=center;verticalAlign=middle;whiteSpace=wrap;rounded=0;" vertex="1" parent="1">
          <mxGeometry x="377.5" y="290" width="75" height="30" as="geometry" />
        </mxCell>
        <mxCell id="GKGKZh8dJ2q86yQ59igy-5" value="RESTful API" style="text;html=1;align=center;verticalAlign=middle;whiteSpace=wrap;rounded=0;" vertex="1" parent="1">
          <mxGeometry x="372.5" y="310" width="85" height="30" as="geometry" />
        </mxCell>
        <mxCell id="GKGKZh8dJ2q86yQ59igy-6" value="Fastify&lt;br&gt;Drizzle ORM" style="text;html=1;align=center;verticalAlign=middle;whiteSpace=wrap;rounded=0;fontStyle=1" vertex="1" parent="1">
          <mxGeometry x="372.5" y="340" width="85" height="30" as="geometry" />
        </mxCell>
        <mxCell id="GKGKZh8dJ2q86yQ59igy-9" value="" style="rounded=0;whiteSpace=wrap;html=1;" vertex="1" parent="1">
          <mxGeometry x="310" y="430" width="210" height="70" as="geometry" />
        </mxCell>
        <mxCell id="GKGKZh8dJ2q86yQ59igy-10" value="Web Client" style="text;html=1;align=center;verticalAlign=middle;whiteSpace=wrap;rounded=0;" vertex="1" parent="1">
          <mxGeometry x="378.75" y="440" width="72.5" height="30" as="geometry" />
        </mxCell>
        <mxCell id="GKGKZh8dJ2q86yQ59igy-11" value="React" style="text;html=1;align=center;verticalAlign=middle;whiteSpace=wrap;rounded=0;fontStyle=1" vertex="1" parent="1">
          <mxGeometry x="385" y="460" width="60" height="30" as="geometry" />
        </mxCell>
      </root>
    </mxGraphModel>
  </diagram>
</mxfile>
